<svg width="358" height="514" viewBox="0 0 358 514" fill="none" xmlns="http://www.w3.org/2000/svg">
<path d="M105 0H0V205H105V0Z" fill="url(#paint0_linear_2_46)"/>
<path d="M315.936 250.281C349.382 281.091 373.937 380.07 343.126 432L343.106 431.992C340.985 438.177 338.158 443.593 334.5 448C297.31 492.802 271.124 504.007 211 514L0 514V412H211V411.715C237.41 408.966 258 386.638 258 359.5C258 332.363 237.41 310.749 211 308H105L53 256L0 205H105H210C258.509 200.721 301.395 237.381 315.515 249.908L315.936 250.281Z" fill="url(#paint1_linear_2_46)"/>
<path d="M0 163H105V205H0V163Z" fill="url(#paint2_linear_2_46)"/>
<defs>
<linearGradient id="paint0_linear_2_46" x1="250.5" y1="72.5" x2="-5.44371e-05" y2="513.501" gradientUnits="userSpaceOnUse">
<stop stop-color="#1DD4B3"/>
<stop offset="0.0001" stop-color="#1DD4C9"/>
<stop offset="1" stop-color="#49FBD0"/>
</linearGradient>
<linearGradient id="paint1_linear_2_46" x1="250.5" y1="72.5" x2="-5.44371e-05" y2="513.501" gradientUnits="userSpaceOnUse">
<stop stop-color="#1DD4B3"/>
<stop offset="0.0001" stop-color="#1DD4C9"/>
<stop offset="1" stop-color="#49FBD0"/>
</linearGradient>
<linearGradient id="paint2_linear_2_46" x1="52.5" y1="163" x2="52.5" y2="206" gradientUnits="userSpaceOnUse">
<stop stop-color="#2CE2CC"/>
<stop offset="1" stop-color="#21A798"/>
</linearGradient>
</defs>
</svg>
